<svg width="27" height="28" viewBox="0 0 27 28" fill="none" xmlns="http://www.w3.org/2000/svg">
<mask id="path-1-inside-1_84_3488" fill="white">
<path d="M11.2242 15.6335C10.806 15.5614 10.3826 15.5244 9.95834 15.5226C8.51072 15.5214 7.09329 15.9365 5.87501 16.7185C4.65359 15.9468 3.23639 15.5419 1.79168 15.5518C1.36739 15.5535 0.943978 15.5906 0.525842 15.6626C0.388879 15.6862 0.264847 15.758 0.176083 15.8649C0.0873186 15.9719 0.0396549 16.107 0.0416754 16.246V23.246C0.040426 23.3317 0.0580823 23.4166 0.0933878 23.4947C0.128693 23.5728 0.180781 23.6422 0.245943 23.6979C0.311106 23.7536 0.387742 23.7942 0.4704 23.8169C0.553057 23.8397 0.639704 23.8439 0.724175 23.8293C1.5601 23.6846 2.41654 23.7086 3.24305 23.8999C4.06955 24.0913 4.84941 24.4461 5.53668 24.9435L5.60668 24.9843H5.67084C5.73553 25.0112 5.80492 25.0251 5.87501 25.0251C5.94509 25.0251 6.01448 25.0112 6.07918 24.9843H6.14334L6.21334 24.9435C6.89582 24.435 7.67343 24.0687 8.5001 23.8662C9.32676 23.6638 10.1856 23.6294 11.0258 23.7651C11.1103 23.7797 11.197 23.7755 11.2796 23.7528C11.3623 23.7301 11.4389 23.6894 11.5041 23.6337C11.5692 23.578 11.6213 23.5087 11.6566 23.4305C11.6919 23.3524 11.7096 23.2675 11.7083 23.1818V16.1818C11.7023 16.0489 11.6509 15.922 11.5629 15.8223C11.4748 15.7226 11.3553 15.6559 11.2242 15.6335ZM5.29168 23.386C4.21244 22.8182 3.01114 22.5219 1.79168 22.5226C1.59918 22.5226 1.40668 22.5226 1.20834 22.5226V16.6893C1.40263 16.6781 1.59739 16.6781 1.79168 16.6893C3.03615 16.6879 4.25347 17.0531 5.29168 17.7393V23.386ZM10.5417 22.546C10.3433 22.546 10.1508 22.546 9.95834 22.546C8.73887 22.5452 7.53758 22.8415 6.45834 23.4093V17.7393C7.49655 17.0531 8.71387 16.6879 9.95834 16.6893C10.1526 16.6781 10.3474 16.6781 10.5417 16.6893V22.546ZM11.2242 24.9668C10.806 24.8948 10.3826 24.8577 9.95834 24.856C8.51072 24.8548 7.09329 25.2699 5.87501 26.0518C4.65673 25.2699 3.2393 24.8548 1.79168 24.856C1.36739 24.8577 0.943978 24.8948 0.525842 24.9668C0.449908 24.9788 0.377105 25.0058 0.31162 25.0461C0.246135 25.0863 0.189259 25.1392 0.144264 25.2015C0.099269 25.2639 0.0670418 25.3345 0.0494359 25.4093C0.0318299 25.4842 0.0291925 25.5618 0.0416754 25.6376C0.0713196 25.7891 0.159795 25.9227 0.28772 26.009C0.415645 26.0954 0.57259 26.1276 0.724175 26.0985C1.5601 25.9537 2.41654 25.9777 3.24305 26.1691C4.06955 26.3604 4.84941 26.7152 5.53668 27.2126C5.63547 27.283 5.75373 27.3208 5.87501 27.3208C5.99629 27.3208 6.11455 27.283 6.21334 27.2126C6.90061 26.7152 7.68047 26.3604 8.50697 26.1691C9.33347 25.9777 10.1899 25.9537 11.0258 26.0985C11.1774 26.1276 11.3344 26.0954 11.4623 26.009C11.5902 25.9227 11.6787 25.7891 11.7083 25.6376C11.7208 25.5618 11.7182 25.4842 11.7006 25.4093C11.683 25.3345 11.6507 25.2639 11.6058 25.2015C11.5608 25.1392 11.5039 25.0863 11.4384 25.0461C11.3729 25.0058 11.3001 24.9788 11.2242 24.9668Z"/>
<path d="M26.125 15.5985C25.9703 15.5985 25.8219 15.6599 25.7125 15.7693C25.6031 15.8787 25.5417 16.0271 25.5417 16.1818V17.3485H24.375V16.1818C24.375 16.0271 24.3136 15.8787 24.2042 15.7693C24.0948 15.6599 23.9464 15.5985 23.7917 15.5985C23.637 15.5985 23.4886 15.6599 23.3792 15.7693C23.2698 15.8787 23.2083 16.0271 23.2083 16.1818V16.7651H18.5417V16.1818C18.5417 16.0271 18.4802 15.8787 18.3708 15.7693C18.2614 15.6599 18.1131 15.5985 17.9583 15.5985C17.8036 15.5985 17.6553 15.6599 17.5459 15.7693C17.4365 15.8787 17.375 16.0271 17.375 16.1818V17.3485H16.2083V16.1818C16.2083 16.0271 16.1469 15.8787 16.0375 15.7693C15.9281 15.6599 15.7797 15.5985 15.625 15.5985C15.4703 15.5985 15.3219 15.6599 15.2125 15.7693C15.1031 15.8787 15.0417 16.0271 15.0417 16.1818V26.6818C15.0417 26.8365 15.1031 26.9849 15.2125 27.0943C15.3219 27.2037 15.4703 27.2651 15.625 27.2651C15.7797 27.2651 15.9281 27.2037 16.0375 27.0943C16.1469 26.9849 16.2083 26.8365 16.2083 26.6818V25.5151H17.375V26.6818C17.375 26.8365 17.4365 26.9849 17.5459 27.0943C17.6553 27.2037 17.8036 27.2651 17.9583 27.2651C18.1131 27.2651 18.2614 27.2037 18.3708 27.0943C18.4802 26.9849 18.5417 26.8365 18.5417 26.6818V26.0985H23.2083V26.6818C23.2083 26.8365 23.2698 26.9849 23.3792 27.0943C23.4886 27.2037 23.637 27.2651 23.7917 27.2651C23.9464 27.2651 24.0948 27.2037 24.2042 27.0943C24.3136 26.9849 24.375 26.8365 24.375 26.6818V25.5151H25.5417V26.6818C25.5417 26.8365 25.6031 26.9849 25.7125 27.0943C25.8219 27.2037 25.9703 27.2651 26.125 27.2651C26.2797 27.2651 26.4281 27.2037 26.5375 27.0943C26.6469 26.9849 26.7083 26.8365 26.7083 26.6818V16.1818C26.7083 16.0271 26.6469 15.8787 26.5375 15.7693C26.4281 15.6599 26.2797 15.5985 26.125 15.5985ZM17.375 24.3485H16.2083V23.1818H17.375V24.3485ZM17.375 22.0151H16.2083V20.8485H17.375V22.0151ZM17.375 19.6818H16.2083V18.5151H17.375V19.6818ZM23.2083 24.9318H18.5417V22.0151H23.2083V24.9318ZM23.2083 20.8485H18.5417V17.9318H23.2083V20.8485ZM25.5417 24.3485H24.375V23.1818H25.5417V24.3485ZM25.5417 22.0151H24.375V20.8485H25.5417V22.0151ZM25.5417 19.6818H24.375V18.5151H25.5417V19.6818Z"/>
<path d="M10.8492 1.73041C10.7892 1.67896 10.7189 1.64103 10.643 1.61921C10.567 1.59738 10.4873 1.59216 10.4092 1.60392L3.25917 2.70385C3.12897 2.72361 3.01017 2.78942 2.92438 2.88934C2.83859 2.98925 2.7915 3.11663 2.79167 3.24832V8.9405C2.5347 8.81499 2.25267 8.74919 1.96668 8.74801C1.58595 8.74801 1.21377 8.86091 0.897202 9.07242C0.580638 9.28393 0.333906 9.58455 0.188207 9.93628C0.0425084 10.288 0.00438703 10.675 0.0786636 11.0484C0.15294 11.4218 0.336279 11.7648 0.605495 12.034C0.874711 12.3032 1.21771 12.4865 1.59113 12.5608C1.96454 12.6351 2.35159 12.597 2.70334 12.4513C3.05509 12.3056 3.35573 12.0589 3.56725 11.7423C3.77878 11.4258 3.89167 11.0536 3.89167 10.6729V6.47114L9.94167 5.54169V7.84056C9.6847 7.71505 9.40267 7.64925 9.11667 7.64807C8.73595 7.64807 8.36377 7.76097 8.0472 7.97248C7.73064 8.18399 7.4839 8.48461 7.33821 8.83634C7.19251 9.18807 7.15439 9.5751 7.22866 9.94849C7.30294 10.3219 7.48628 10.6649 7.75549 10.9341C8.02471 11.2033 8.36771 11.3866 8.74113 11.4609C9.11454 11.5351 9.50159 11.497 9.85334 11.3513C10.2051 11.2056 10.5057 10.9589 10.7173 10.6424C10.9288 10.3258 11.0417 9.95367 11.0417 9.57297V2.14839C11.0417 2.06895 11.0245 1.99045 10.9912 1.9183C10.958 1.84614 10.9095 1.78204 10.8492 1.73041ZM1.96668 11.4979C1.80351 11.4979 1.644 11.4495 1.50833 11.3588C1.37266 11.2682 1.26692 11.1393 1.20447 10.9886C1.14203 10.8379 1.12569 10.672 1.15753 10.512C1.18936 10.3519 1.26793 10.2049 1.38331 10.0896C1.49869 9.9742 1.64569 9.89563 1.80573 9.8638C1.96576 9.83197 2.13164 9.84831 2.28239 9.91075C2.43314 9.97319 2.56199 10.0789 2.65264 10.2146C2.74329 10.3502 2.79167 10.5097 2.79167 10.6729C2.79167 10.8917 2.70476 11.1015 2.55004 11.2562C2.39532 11.4109 2.18548 11.4979 1.96668 11.4979ZM9.11667 10.3979C8.9535 10.3979 8.794 10.3495 8.65833 10.2589C8.52266 10.1682 8.41692 10.0394 8.35447 9.88866C8.29203 9.73792 8.27569 9.57205 8.30753 9.41203C8.33936 9.252 8.41793 9.10501 8.53331 8.98964C8.64869 8.87426 8.79569 8.79569 8.95573 8.76386C9.11576 8.73203 9.28164 8.74837 9.43239 8.81081C9.58314 8.87325 9.71198 8.97898 9.80264 9.11465C9.89329 9.25031 9.94167 9.40981 9.94167 9.57297C9.94167 9.79176 9.85475 10.0016 9.70004 10.1563C9.54532 10.311 9.33548 10.3979 9.11667 10.3979ZM9.94167 4.42526L3.89167 5.3547V3.7048L9.94167 2.79185V4.42526Z"/>
<path d="M25.125 3.18128H22.8813L24.3188 1.75032C24.377 1.69206 24.4233 1.62289 24.4548 1.54677C24.4863 1.47064 24.5026 1.38905 24.5026 1.30666C24.5026 1.22426 24.4863 1.14268 24.4548 1.06655C24.4233 0.990429 24.377 0.921262 24.3188 0.862999C24.2605 0.804737 24.1913 0.758521 24.1152 0.72699C24.039 0.695459 23.9574 0.67923 23.875 0.67923C23.7086 0.67923 23.5489 0.745334 23.4313 0.862999L21.375 2.89383L20.6438 1.64409C20.6027 1.5727 20.548 1.51009 20.4828 1.45983C20.4175 1.40957 20.343 1.37266 20.2635 1.35119C20.184 1.32972 20.1011 1.32412 20.0194 1.3347C19.9377 1.34529 19.8589 1.37186 19.7875 1.41289C19.7161 1.45392 19.6535 1.50861 19.6032 1.57383C19.5529 1.63906 19.516 1.71355 19.4945 1.79304C19.4731 1.87253 19.4675 1.95548 19.4781 2.03714C19.4886 2.1188 19.5152 2.19757 19.5563 2.26896L20.125 3.18128H17.625C17.1277 3.18128 16.6508 3.37878 16.2992 3.73034C15.9476 4.0819 15.75 4.55871 15.75 5.05589V10.0549C15.75 10.552 15.9476 11.0289 16.2992 11.3804C16.6508 11.732 17.1277 11.9295 17.625 11.9295V12.5544C17.625 12.7201 17.6909 12.879 17.8081 12.9962C17.9253 13.1134 18.0842 13.1792 18.25 13.1792C18.4158 13.1792 18.5747 13.1134 18.6919 12.9962C18.8092 12.879 18.875 12.7201 18.875 12.5544V11.9295H23.875V12.5544C23.875 12.7201 23.9409 12.879 24.0581 12.9962C24.1753 13.1134 24.3342 13.1792 24.5 13.1792C24.6658 13.1792 24.8247 13.1134 24.942 12.9962C25.0592 12.879 25.125 12.7201 25.125 12.5544V11.9295C25.6223 11.9295 26.0992 11.732 26.4508 11.3804C26.8025 11.0289 27 10.552 27 10.0549V5.05589C27 4.55871 26.8025 4.0819 26.4508 3.73034C26.0992 3.37878 25.6223 3.18128 25.125 3.18128ZM25.75 10.0549C25.75 10.2206 25.6842 10.3795 25.567 10.4967C25.4497 10.6139 25.2908 10.6797 25.125 10.6797H17.625C17.4592 10.6797 17.3003 10.6139 17.1831 10.4967C17.0659 10.3795 17 10.2206 17 10.0549V5.05589C17 4.89017 17.0659 4.73123 17.1831 4.61404C17.3003 4.49685 17.4592 4.43102 17.625 4.43102H25.125C25.2908 4.43102 25.4497 4.49685 25.567 4.61404C25.6842 4.73123 25.75 4.89017 25.75 5.05589V10.0549Z"/>
</mask>
<path d="M11.2242 15.6335C10.806 15.5614 10.3826 15.5244 9.95834 15.5226C8.51072 15.5214 7.09329 15.9365 5.87501 16.7185C4.65359 15.9468 3.23639 15.5419 1.79168 15.5518C1.36739 15.5535 0.943978 15.5906 0.525842 15.6626C0.388879 15.6862 0.264847 15.758 0.176083 15.8649C0.0873186 15.9719 0.0396549 16.107 0.0416754 16.246V23.246C0.040426 23.3317 0.0580823 23.4166 0.0933878 23.4947C0.128693 23.5728 0.180781 23.6422 0.245943 23.6979C0.311106 23.7536 0.387742 23.7942 0.4704 23.8169C0.553057 23.8397 0.639704 23.8439 0.724175 23.8293C1.5601 23.6846 2.41654 23.7086 3.24305 23.8999C4.06955 24.0913 4.84941 24.4461 5.53668 24.9435L5.60668 24.9843H5.67084C5.73553 25.0112 5.80492 25.0251 5.87501 25.0251C5.94509 25.0251 6.01448 25.0112 6.07918 24.9843H6.14334L6.21334 24.9435C6.89582 24.435 7.67343 24.0687 8.5001 23.8662C9.32676 23.6638 10.1856 23.6294 11.0258 23.7651C11.1103 23.7797 11.197 23.7755 11.2796 23.7528C11.3623 23.7301 11.4389 23.6894 11.5041 23.6337C11.5692 23.578 11.6213 23.5087 11.6566 23.4305C11.6919 23.3524 11.7096 23.2675 11.7083 23.1818V16.1818C11.7023 16.0489 11.6509 15.922 11.5629 15.8223C11.4748 15.7226 11.3553 15.6559 11.2242 15.6335ZM5.29168 23.386C4.21244 22.8182 3.01114 22.5219 1.79168 22.5226C1.59918 22.5226 1.40668 22.5226 1.20834 22.5226V16.6893C1.40263 16.6781 1.59739 16.6781 1.79168 16.6893C3.03615 16.6879 4.25347 17.0531 5.29168 17.7393V23.386ZM10.5417 22.546C10.3433 22.546 10.1508 22.546 9.95834 22.546C8.73887 22.5452 7.53758 22.8415 6.45834 23.4093V17.7393C7.49655 17.0531 8.71387 16.6879 9.95834 16.6893C10.1526 16.6781 10.3474 16.6781 10.5417 16.6893V22.546ZM11.2242 24.9668C10.806 24.8948 10.3826 24.8577 9.95834 24.856C8.51072 24.8548 7.09329 25.2699 5.87501 26.0518C4.65673 25.2699 3.2393 24.8548 1.79168 24.856C1.36739 24.8577 0.943978 24.8948 0.525842 24.9668C0.449908 24.9788 0.377105 25.0058 0.31162 25.0461C0.246135 25.0863 0.189259 25.1392 0.144264 25.2015C0.099269 25.2639 0.0670418 25.3345 0.0494359 25.4093C0.0318299 25.4842 0.0291925 25.5618 0.0416754 25.6376C0.0713196 25.7891 0.159795 25.9227 0.28772 26.009C0.415645 26.0954 0.57259 26.1276 0.724175 26.0985C1.5601 25.9537 2.41654 25.9777 3.24305 26.1691C4.06955 26.3604 4.84941 26.7152 5.53668 27.2126C5.63547 27.283 5.75373 27.3208 5.87501 27.3208C5.99629 27.3208 6.11455 27.283 6.21334 27.2126C6.90061 26.7152 7.68047 26.3604 8.50697 26.1691C9.33347 25.9777 10.1899 25.9537 11.0258 26.0985C11.1774 26.1276 11.3344 26.0954 11.4623 26.009C11.5902 25.9227 11.6787 25.7891 11.7083 25.6376C11.7208 25.5618 11.7182 25.4842 11.7006 25.4093C11.683 25.3345 11.6507 25.2639 11.6058 25.2015C11.5608 25.1392 11.5039 25.0863 11.4384 25.0461C11.3729 25.0058 11.3001 24.9788 11.2242 24.9668Z" stroke="#D172FF" stroke-width="2" mask="url(#path-1-inside-1_84_3488)"/>
<path d="M26.125 15.5985C25.9703 15.5985 25.8219 15.6599 25.7125 15.7693C25.6031 15.8787 25.5417 16.0271 25.5417 16.1818V17.3485H24.375V16.1818C24.375 16.0271 24.3136 15.8787 24.2042 15.7693C24.0948 15.6599 23.9464 15.5985 23.7917 15.5985C23.637 15.5985 23.4886 15.6599 23.3792 15.7693C23.2698 15.8787 23.2083 16.0271 23.2083 16.1818V16.7651H18.5417V16.1818C18.5417 16.0271 18.4802 15.8787 18.3708 15.7693C18.2614 15.6599 18.1131 15.5985 17.9583 15.5985C17.8036 15.5985 17.6553 15.6599 17.5459 15.7693C17.4365 15.8787 17.375 16.0271 17.375 16.1818V17.3485H16.2083V16.1818C16.2083 16.0271 16.1469 15.8787 16.0375 15.7693C15.9281 15.6599 15.7797 15.5985 15.625 15.5985C15.4703 15.5985 15.3219 15.6599 15.2125 15.7693C15.1031 15.8787 15.0417 16.0271 15.0417 16.1818V26.6818C15.0417 26.8365 15.1031 26.9849 15.2125 27.0943C15.3219 27.2037 15.4703 27.2651 15.625 27.2651C15.7797 27.2651 15.9281 27.2037 16.0375 27.0943C16.1469 26.9849 16.2083 26.8365 16.2083 26.6818V25.5151H17.375V26.6818C17.375 26.8365 17.4365 26.9849 17.5459 27.0943C17.6553 27.2037 17.8036 27.2651 17.9583 27.2651C18.1131 27.2651 18.2614 27.2037 18.3708 27.0943C18.4802 26.9849 18.5417 26.8365 18.5417 26.6818V26.0985H23.2083V26.6818C23.2083 26.8365 23.2698 26.9849 23.3792 27.0943C23.4886 27.2037 23.637 27.2651 23.7917 27.2651C23.9464 27.2651 24.0948 27.2037 24.2042 27.0943C24.3136 26.9849 24.375 26.8365 24.375 26.6818V25.5151H25.5417V26.6818C25.5417 26.8365 25.6031 26.9849 25.7125 27.0943C25.8219 27.2037 25.9703 27.2651 26.125 27.2651C26.2797 27.2651 26.4281 27.2037 26.5375 27.0943C26.6469 26.9849 26.7083 26.8365 26.7083 26.6818V16.1818C26.7083 16.0271 26.6469 15.8787 26.5375 15.7693C26.4281 15.6599 26.2797 15.5985 26.125 15.5985ZM17.375 24.3485H16.2083V23.1818H17.375V24.3485ZM17.375 22.0151H16.2083V20.8485H17.375V22.0151ZM17.375 19.6818H16.2083V18.5151H17.375V19.6818ZM23.2083 24.9318H18.5417V22.0151H23.2083V24.9318ZM23.2083 20.8485H18.5417V17.9318H23.2083V20.8485ZM25.5417 24.3485H24.375V23.1818H25.5417V24.3485ZM25.5417 22.0151H24.375V20.8485H25.5417V22.0151ZM25.5417 19.6818H24.375V18.5151H25.5417V19.6818Z" stroke="#D172FF" stroke-width="2" mask="url(#path-1-inside-1_84_3488)"/>
<path d="M10.8492 1.73041C10.7892 1.67896 10.7189 1.64103 10.643 1.61921C10.567 1.59738 10.4873 1.59216 10.4092 1.60392L3.25917 2.70385C3.12897 2.72361 3.01017 2.78942 2.92438 2.88934C2.83859 2.98925 2.7915 3.11663 2.79167 3.24832V8.9405C2.5347 8.81499 2.25267 8.74919 1.96668 8.74801C1.58595 8.74801 1.21377 8.86091 0.897202 9.07242C0.580638 9.28393 0.333906 9.58455 0.188207 9.93628C0.0425084 10.288 0.00438703 10.675 0.0786636 11.0484C0.15294 11.4218 0.336279 11.7648 0.605495 12.034C0.874711 12.3032 1.21771 12.4865 1.59113 12.5608C1.96454 12.6351 2.35159 12.597 2.70334 12.4513C3.05509 12.3056 3.35573 12.0589 3.56725 11.7423C3.77878 11.4258 3.89167 11.0536 3.89167 10.6729V6.47114L9.94167 5.54169V7.84056C9.6847 7.71505 9.40267 7.64925 9.11667 7.64807C8.73595 7.64807 8.36377 7.76097 8.0472 7.97248C7.73064 8.18399 7.4839 8.48461 7.33821 8.83634C7.19251 9.18807 7.15439 9.5751 7.22866 9.94849C7.30294 10.3219 7.48628 10.6649 7.75549 10.9341C8.02471 11.2033 8.36771 11.3866 8.74113 11.4609C9.11454 11.5351 9.50159 11.497 9.85334 11.3513C10.2051 11.2056 10.5057 10.9589 10.7173 10.6424C10.9288 10.3258 11.0417 9.95367 11.0417 9.57297V2.14839C11.0417 2.06895 11.0245 1.99045 10.9912 1.9183C10.958 1.84614 10.9095 1.78204 10.8492 1.73041ZM1.96668 11.4979C1.80351 11.4979 1.644 11.4495 1.50833 11.3588C1.37266 11.2682 1.26692 11.1393 1.20447 10.9886C1.14203 10.8379 1.12569 10.672 1.15753 10.512C1.18936 10.3519 1.26793 10.2049 1.38331 10.0896C1.49869 9.9742 1.64569 9.89563 1.80573 9.8638C1.96576 9.83197 2.13164 9.84831 2.28239 9.91075C2.43314 9.97319 2.56199 10.0789 2.65264 10.2146C2.74329 10.3502 2.79167 10.5097 2.79167 10.6729C2.79167 10.8917 2.70476 11.1015 2.55004 11.2562C2.39532 11.4109 2.18548 11.4979 1.96668 11.4979ZM9.11667 10.3979C8.9535 10.3979 8.794 10.3495 8.65833 10.2589C8.52266 10.1682 8.41692 10.0394 8.35447 9.88866C8.29203 9.73792 8.27569 9.57205 8.30753 9.41203C8.33936 9.252 8.41793 9.10501 8.53331 8.98964C8.64869 8.87426 8.79569 8.79569 8.95573 8.76386C9.11576 8.73203 9.28164 8.74837 9.43239 8.81081C9.58314 8.87325 9.71198 8.97898 9.80264 9.11465C9.89329 9.25031 9.94167 9.40981 9.94167 9.57297C9.94167 9.79176 9.85475 10.0016 9.70004 10.1563C9.54532 10.311 9.33548 10.3979 9.11667 10.3979ZM9.94167 4.42526L3.89167 5.3547V3.7048L9.94167 2.79185V4.42526Z" stroke="#D172FF" stroke-width="2" mask="url(#path-1-inside-1_84_3488)"/>
<path d="M25.125 3.18128H22.8813L24.3188 1.75032C24.377 1.69206 24.4233 1.62289 24.4548 1.54677C24.4863 1.47064 24.5026 1.38905 24.5026 1.30666C24.5026 1.22426 24.4863 1.14268 24.4548 1.06655C24.4233 0.990429 24.377 0.921262 24.3188 0.862999C24.2605 0.804737 24.1913 0.758521 24.1152 0.72699C24.039 0.695459 23.9574 0.67923 23.875 0.67923C23.7086 0.67923 23.5489 0.745334 23.4313 0.862999L21.375 2.89383L20.6438 1.64409C20.6027 1.5727 20.548 1.51009 20.4828 1.45983C20.4175 1.40957 20.343 1.37266 20.2635 1.35119C20.184 1.32972 20.1011 1.32412 20.0194 1.3347C19.9377 1.34529 19.8589 1.37186 19.7875 1.41289C19.7161 1.45392 19.6535 1.50861 19.6032 1.57383C19.5529 1.63906 19.516 1.71355 19.4945 1.79304C19.4731 1.87253 19.4675 1.95548 19.4781 2.03714C19.4886 2.1188 19.5152 2.19757 19.5563 2.26896L20.125 3.18128H17.625C17.1277 3.18128 16.6508 3.37878 16.2992 3.73034C15.9476 4.0819 15.75 4.55871 15.75 5.05589V10.0549C15.75 10.552 15.9476 11.0289 16.2992 11.3804C16.6508 11.732 17.1277 11.9295 17.625 11.9295V12.5544C17.625 12.7201 17.6909 12.879 17.8081 12.9962C17.9253 13.1134 18.0842 13.1792 18.25 13.1792C18.4158 13.1792 18.5747 13.1134 18.6919 12.9962C18.8092 12.879 18.875 12.7201 18.875 12.5544V11.9295H23.875V12.5544C23.875 12.7201 23.9409 12.879 24.0581 12.9962C24.1753 13.1134 24.3342 13.1792 24.5 13.1792C24.6658 13.1792 24.8247 13.1134 24.942 12.9962C25.0592 12.879 25.125 12.7201 25.125 12.5544V11.9295C25.6223 11.9295 26.0992 11.732 26.4508 11.3804C26.8025 11.0289 27 10.552 27 10.0549V5.05589C27 4.55871 26.8025 4.0819 26.4508 3.73034C26.0992 3.37878 25.6223 3.18128 25.125 3.18128ZM25.75 10.0549C25.75 10.2206 25.6842 10.3795 25.567 10.4967C25.4497 10.6139 25.2908 10.6797 25.125 10.6797H17.625C17.4592 10.6797 17.3003 10.6139 17.1831 10.4967C17.0659 10.3795 17 10.2206 17 10.0549V5.05589C17 4.89017 17.0659 4.73123 17.1831 4.61404C17.3003 4.49685 17.4592 4.43102 17.625 4.43102H25.125C25.2908 4.43102 25.4497 4.49685 25.567 4.61404C25.6842 4.73123 25.75 4.89017 25.75 5.05589V10.0549Z" stroke="#D172FF" stroke-width="2" mask="url(#path-1-inside-1_84_3488)"/>
</svg>
