<svg width="27" height="27" viewBox="0 0 27 27" fill="none" xmlns="http://www.w3.org/2000/svg">
<mask id="path-1-inside-1_264_7955" fill="white">
<path d="M11.1902 14.9542C10.7721 14.8822 10.3487 14.8451 9.92441 14.8434C8.47679 14.8422 7.05936 15.2573 5.84107 16.0392C4.61966 15.2676 3.20245 14.8627 1.75774 14.8726C1.33345 14.8743 0.910042 14.9114 0.491906 14.9834C0.354944 15.007 0.230912 15.0787 0.142147 15.1857C0.0533831 15.2926 0.00571931 15.4278 0.00773981 15.5667V22.5667C0.00649049 22.6524 0.0241468 22.7374 0.0594523 22.8155C0.0947578 22.8936 0.146845 22.963 0.212008 23.0187C0.27717 23.0744 0.353807 23.115 0.436464 23.1377C0.519121 23.1604 0.605768 23.1646 0.69024 23.1501C1.52617 23.0053 2.38261 23.0293 3.20911 23.2207C4.03562 23.412 4.81547 23.7668 5.50274 24.2642L5.57274 24.3051H5.63691C5.7016 24.332 5.77099 24.3459 5.84107 24.3459C5.91116 24.3459 5.98055 24.332 6.04524 24.3051H6.10941L6.17941 24.2642C6.86188 23.7557 7.6395 23.3894 8.46616 23.187C9.29282 22.9846 10.1517 22.9502 10.9919 23.0859C11.0764 23.1005 11.163 23.0963 11.2457 23.0735C11.3283 23.0508 11.405 23.0102 11.4701 22.9545C11.5353 22.8988 11.5874 22.8294 11.6227 22.7513C11.658 22.6732 11.6757 22.5883 11.6744 22.5026V15.5026C11.6683 15.3696 11.617 15.2428 11.5289 15.1431C11.4409 15.0433 11.3214 14.9767 11.1902 14.9542ZM5.25774 22.7067C4.1785 22.139 2.97721 21.8426 1.75774 21.8434C1.56524 21.8434 1.37274 21.8434 1.17441 21.8434V16.0101C1.36869 15.9989 1.56346 15.9989 1.75774 16.0101C3.00221 16.0087 4.21953 16.3739 5.25774 17.0601V22.7067ZM10.5077 21.8667C10.3094 21.8667 10.1169 21.8667 9.92441 21.8667C8.70494 21.866 7.50364 22.1623 6.42441 22.7301V17.0601C7.46261 16.3739 8.67993 16.0087 9.92441 16.0101C10.1187 15.9989 10.3135 15.9989 10.5077 16.0101V21.8667ZM11.1902 24.2876C10.7721 24.2155 10.3487 24.1785 9.92441 24.1767C8.47679 24.1755 7.05936 24.5906 5.84107 25.3726C4.62279 24.5906 3.20536 24.1755 1.75774 24.1767C1.33345 24.1785 0.910042 24.2155 0.491906 24.2876C0.415972 24.2996 0.34317 24.3265 0.277685 24.3668C0.212199 24.4071 0.155324 24.46 0.110329 24.5223C0.0653335 24.5846 0.0331063 24.6553 0.0155003 24.7301C-0.00210564 24.8049 -0.00474302 24.8825 0.00773981 24.9584C0.037384 25.1099 0.125859 25.2434 0.253784 25.3298C0.381709 25.4162 0.538654 25.4483 0.69024 25.4192C1.52617 25.2745 2.38261 25.2985 3.20911 25.4899C4.03562 25.6812 4.81547 26.036 5.50274 26.5334C5.60153 26.6037 5.7198 26.6415 5.84107 26.6415C5.96235 26.6415 6.08061 26.6037 6.17941 26.5334C6.86668 26.036 7.64653 25.6812 8.47303 25.4899C9.29954 25.2985 10.156 25.2745 10.9919 25.4192C11.1435 25.4483 11.3004 25.4162 11.4284 25.3298C11.5563 25.2434 11.6448 25.1099 11.6744 24.9584C11.6869 24.8825 11.6843 24.8049 11.6666 24.7301C11.649 24.6553 11.6168 24.5846 11.5718 24.5223C11.5268 24.46 11.4699 24.4071 11.4045 24.3668C11.339 24.3265 11.2662 24.2996 11.1902 24.2876Z"/>
<path d="M26.0911 14.9192C25.9364 14.9192 25.788 14.9807 25.6786 15.0901C25.5692 15.1995 25.5077 15.3478 25.5077 15.5026V16.6692H24.3411V15.5026C24.3411 15.3478 24.2796 15.1995 24.1702 15.0901C24.0608 14.9807 23.9124 14.9192 23.7577 14.9192C23.603 14.9192 23.4547 14.9807 23.3453 15.0901C23.2359 15.1995 23.1744 15.3478 23.1744 15.5026V16.0859H18.5077V15.5026C18.5077 15.3478 18.4463 15.1995 18.3369 15.0901C18.2275 14.9807 18.0791 14.9192 17.9244 14.9192C17.7697 14.9192 17.6213 14.9807 17.5119 15.0901C17.4025 15.1995 17.3411 15.3478 17.3411 15.5026V16.6692H16.1744V15.5026C16.1744 15.3478 16.1129 15.1995 16.0036 15.0901C15.8942 14.9807 15.7458 14.9192 15.5911 14.9192C15.4364 14.9192 15.288 14.9807 15.1786 15.0901C15.0692 15.1995 15.0077 15.3478 15.0077 15.5026V26.0026C15.0077 26.1573 15.0692 26.3056 15.1786 26.415C15.288 26.5244 15.4364 26.5859 15.5911 26.5859C15.7458 26.5859 15.8942 26.5244 16.0036 26.415C16.1129 26.3056 16.1744 26.1573 16.1744 26.0026V24.8359H17.3411V26.0026C17.3411 26.1573 17.4025 26.3056 17.5119 26.415C17.6213 26.5244 17.7697 26.5859 17.9244 26.5859C18.0791 26.5859 18.2275 26.5244 18.3369 26.415C18.4463 26.3056 18.5077 26.1573 18.5077 26.0026V25.4192H23.1744V26.0026C23.1744 26.1573 23.2359 26.3056 23.3453 26.415C23.4547 26.5244 23.603 26.5859 23.7577 26.5859C23.9124 26.5859 24.0608 26.5244 24.1702 26.415C24.2796 26.3056 24.3411 26.1573 24.3411 26.0026V24.8359H25.5077V26.0026C25.5077 26.1573 25.5692 26.3056 25.6786 26.415C25.788 26.5244 25.9364 26.5859 26.0911 26.5859C26.2458 26.5859 26.3942 26.5244 26.5036 26.415C26.6129 26.3056 26.6744 26.1573 26.6744 26.0026V15.5026C26.6744 15.3478 26.6129 15.1995 26.5036 15.0901C26.3942 14.9807 26.2458 14.9192 26.0911 14.9192ZM17.3411 23.6692H16.1744V22.5026H17.3411V23.6692ZM17.3411 21.3359H16.1744V20.1692H17.3411V21.3359ZM17.3411 19.0026H16.1744V17.8359H17.3411V19.0026ZM23.1744 24.2526H18.5077V21.3359H23.1744V24.2526ZM23.1744 20.1692H18.5077V17.2526H23.1744V20.1692ZM25.5077 23.6692H24.3411V22.5026H25.5077V23.6692ZM25.5077 21.3359H24.3411V20.1692H25.5077V21.3359ZM25.5077 19.0026H24.3411V17.8359H25.5077V19.0026Z"/>
<path d="M10.8152 1.05118C10.7553 0.999733 10.685 0.961805 10.609 0.939977C10.5331 0.91815 10.4534 0.912934 10.3752 0.924686L3.22524 2.02462C3.09503 2.04438 2.97624 2.11019 2.89045 2.21011C2.80466 2.31002 2.75757 2.4374 2.75774 2.56909V8.26127C2.50076 8.13576 2.21873 8.06996 1.93274 8.06878C1.55201 8.06878 1.17983 8.18168 0.863267 8.39319C0.546702 8.6047 0.29997 8.90532 0.154272 9.25705C0.00857289 9.60878 -0.0295485 9.99581 0.044728 10.3692C0.119005 10.7426 0.302343 11.0856 0.571559 11.3548C0.840775 11.624 1.18378 11.8073 1.55719 11.8816C1.9306 11.9559 2.31766 11.9177 2.6694 11.772C3.02115 11.6264 3.3218 11.3796 3.53332 11.0631C3.74484 10.7465 3.85774 10.3744 3.85774 9.99367V5.79191L9.90774 4.86246V7.16133C9.65076 7.03582 9.36873 6.97002 9.08274 6.96884C8.70201 6.96884 8.32983 7.08174 8.01327 7.29325C7.6967 7.50476 7.44997 7.80538 7.30427 8.15711C7.15857 8.50884 7.12045 8.89587 7.19473 9.26926C7.269 9.64266 7.45234 9.98564 7.72156 10.2548C7.99077 10.524 8.33378 10.7074 8.70719 10.7816C9.0806 10.8559 9.46766 10.8178 9.8194 10.6721C10.1712 10.5264 10.4718 10.2797 10.6833 9.96315C10.8948 9.6466 11.0077 9.27444 11.0077 8.89374V1.46916C11.0077 1.38972 10.9905 1.31122 10.9573 1.23907C10.9241 1.16691 10.8756 1.10281 10.8152 1.05118ZM1.93274 10.8186C1.76957 10.8186 1.61006 10.7702 1.47439 10.6796C1.33872 10.589 1.23298 10.4601 1.17054 10.3094C1.1081 10.1586 1.09176 9.99276 1.12359 9.83273C1.15542 9.67271 1.234 9.52572 1.34938 9.41034C1.46475 9.29497 1.61176 9.2164 1.77179 9.18457C1.93182 9.15274 2.0977 9.16908 2.24845 9.23152C2.3992 9.29396 2.52805 9.39969 2.6187 9.53535C2.70935 9.67102 2.75774 9.83051 2.75774 9.99367C2.75774 10.2125 2.67082 10.4223 2.5161 10.577C2.36139 10.7317 2.15154 10.8186 1.93274 10.8186ZM9.08274 9.71869C8.91957 9.71869 8.76006 9.67031 8.62439 9.57966C8.48872 9.48901 8.38298 9.36017 8.32054 9.20943C8.2581 9.05869 8.24176 8.89282 8.27359 8.7328C8.30542 8.57277 8.384 8.42578 8.49938 8.31041C8.61475 8.19503 8.76176 8.11646 8.92179 8.08463C9.08182 8.0528 9.2477 8.06914 9.39845 8.13158C9.5492 8.19402 9.67805 8.29975 9.7687 8.43542C9.85935 8.57108 9.90774 8.73058 9.90774 8.89374C9.90774 9.11253 9.82082 9.32236 9.6661 9.47707C9.51138 9.63177 9.30154 9.71869 9.08274 9.71869ZM9.90774 3.74603L3.85774 4.67547V3.02557L9.90774 2.11262V3.74603Z"/>
<path d="M25.0911 2.50205H22.8473L24.2848 1.07109C24.3431 1.01283 24.3893 0.943659 24.4209 0.867536C24.4524 0.791412 24.4686 0.709824 24.4686 0.627429C24.4686 0.545034 24.4524 0.463445 24.4209 0.387322C24.3893 0.311199 24.3431 0.242032 24.2848 0.18377C24.2265 0.125507 24.1574 0.0792914 24.0812 0.0477601C24.0051 0.0162289 23.9235 0 23.8411 0C23.6746 0 23.515 0.0661039 23.3973 0.18377L21.3411 2.2146L20.6098 0.96486C20.5688 0.893468 20.5141 0.830857 20.4488 0.780601C20.3836 0.730345 20.3091 0.693429 20.2296 0.67196C20.1501 0.65049 20.0671 0.644889 19.9854 0.655475C19.9038 0.666061 19.825 0.692627 19.7536 0.733657C19.6822 0.774687 19.6195 0.829376 19.5693 0.894603C19.519 0.95983 19.4821 1.03432 19.4606 1.11381C19.4391 1.1933 19.4335 1.27625 19.4441 1.35791C19.4547 1.43957 19.4813 1.51834 19.5223 1.58973L20.0911 2.50205H17.5911C17.0938 2.50205 16.6169 2.69955 16.2652 3.05111C15.9136 3.40267 15.7161 3.87948 15.7161 4.37666V9.37564C15.7161 9.87282 15.9136 10.3496 16.2652 10.7012C16.6169 11.0528 17.0938 11.2503 17.5911 11.2503V11.8751C17.5911 12.0409 17.6569 12.1998 17.7741 12.317C17.8913 12.4342 18.0503 12.5 18.2161 12.5C18.3818 12.5 18.5408 12.4342 18.658 12.317C18.7752 12.1998 18.8411 12.0409 18.8411 11.8751V11.2503H23.8411V11.8751C23.8411 12.0409 23.9069 12.1998 24.0241 12.317C24.1413 12.4342 24.3003 12.5 24.4661 12.5C24.6318 12.5 24.7908 12.4342 24.908 12.317C25.0252 12.1998 25.0911 12.0409 25.0911 11.8751V11.2503C25.5884 11.2503 26.0653 11.0528 26.4169 10.7012C26.7685 10.3496 26.9661 9.87282 26.9661 9.37564V4.37666C26.9661 3.87948 26.7685 3.40267 26.4169 3.05111C26.0653 2.69955 25.5884 2.50205 25.0911 2.50205ZM25.7161 9.37564C25.7161 9.54137 25.6502 9.7003 25.533 9.81749C25.4158 9.93468 25.2568 10.0005 25.0911 10.0005H17.5911C17.4253 10.0005 17.2663 9.93468 17.1491 9.81749C17.0319 9.7003 16.9661 9.54137 16.9661 9.37564V4.37666C16.9661 4.21094 17.0319 4.052 17.1491 3.93481C17.2663 3.81762 17.4253 3.75179 17.5911 3.75179H25.0911C25.2568 3.75179 25.4158 3.81762 25.533 3.93481C25.6502 4.052 25.7161 4.21094 25.7161 4.37666V9.37564Z"/>
</mask>
<path d="M11.1902 14.9542C10.7721 14.8822 10.3487 14.8451 9.92441 14.8434C8.47679 14.8422 7.05936 15.2573 5.84107 16.0392C4.61966 15.2676 3.20245 14.8627 1.75774 14.8726C1.33345 14.8743 0.910042 14.9114 0.491906 14.9834C0.354944 15.007 0.230912 15.0787 0.142147 15.1857C0.0533831 15.2926 0.00571931 15.4278 0.00773981 15.5667V22.5667C0.00649049 22.6524 0.0241468 22.7374 0.0594523 22.8155C0.0947578 22.8936 0.146845 22.963 0.212008 23.0187C0.27717 23.0744 0.353807 23.115 0.436464 23.1377C0.519121 23.1604 0.605768 23.1646 0.69024 23.1501C1.52617 23.0053 2.38261 23.0293 3.20911 23.2207C4.03562 23.412 4.81547 23.7668 5.50274 24.2642L5.57274 24.3051H5.63691C5.7016 24.332 5.77099 24.3459 5.84107 24.3459C5.91116 24.3459 5.98055 24.332 6.04524 24.3051H6.10941L6.17941 24.2642C6.86188 23.7557 7.6395 23.3894 8.46616 23.187C9.29282 22.9846 10.1517 22.9502 10.9919 23.0859C11.0764 23.1005 11.163 23.0963 11.2457 23.0735C11.3283 23.0508 11.405 23.0102 11.4701 22.9545C11.5353 22.8988 11.5874 22.8294 11.6227 22.7513C11.658 22.6732 11.6757 22.5883 11.6744 22.5026V15.5026C11.6683 15.3696 11.617 15.2428 11.5289 15.1431C11.4409 15.0433 11.3214 14.9767 11.1902 14.9542ZM5.25774 22.7067C4.1785 22.139 2.97721 21.8426 1.75774 21.8434C1.56524 21.8434 1.37274 21.8434 1.17441 21.8434V16.0101C1.36869 15.9989 1.56346 15.9989 1.75774 16.0101C3.00221 16.0087 4.21953 16.3739 5.25774 17.0601V22.7067ZM10.5077 21.8667C10.3094 21.8667 10.1169 21.8667 9.92441 21.8667C8.70494 21.866 7.50364 22.1623 6.42441 22.7301V17.0601C7.46261 16.3739 8.67993 16.0087 9.92441 16.0101C10.1187 15.9989 10.3135 15.9989 10.5077 16.0101V21.8667ZM11.1902 24.2876C10.7721 24.2155 10.3487 24.1785 9.92441 24.1767C8.47679 24.1755 7.05936 24.5906 5.84107 25.3726C4.62279 24.5906 3.20536 24.1755 1.75774 24.1767C1.33345 24.1785 0.910042 24.2155 0.491906 24.2876C0.415972 24.2996 0.34317 24.3265 0.277685 24.3668C0.212199 24.4071 0.155324 24.46 0.110329 24.5223C0.0653335 24.5846 0.0331063 24.6553 0.0155003 24.7301C-0.00210564 24.8049 -0.00474302 24.8825 0.00773981 24.9584C0.037384 25.1099 0.125859 25.2434 0.253784 25.3298C0.381709 25.4162 0.538654 25.4483 0.69024 25.4192C1.52617 25.2745 2.38261 25.2985 3.20911 25.4899C4.03562 25.6812 4.81547 26.036 5.50274 26.5334C5.60153 26.6037 5.7198 26.6415 5.84107 26.6415C5.96235 26.6415 6.08061 26.6037 6.17941 26.5334C6.86668 26.036 7.64653 25.6812 8.47303 25.4899C9.29954 25.2985 10.156 25.2745 10.9919 25.4192C11.1435 25.4483 11.3004 25.4162 11.4284 25.3298C11.5563 25.2434 11.6448 25.1099 11.6744 24.9584C11.6869 24.8825 11.6843 24.8049 11.6666 24.7301C11.649 24.6553 11.6168 24.5846 11.5718 24.5223C11.5268 24.46 11.4699 24.4071 11.4045 24.3668C11.339 24.3265 11.2662 24.2996 11.1902 24.2876Z" stroke="#FAFAFA" stroke-width="2" mask="url(#path-1-inside-1_264_7955)"/>
<path d="M26.0911 14.9192C25.9364 14.9192 25.788 14.9807 25.6786 15.0901C25.5692 15.1995 25.5077 15.3478 25.5077 15.5026V16.6692H24.3411V15.5026C24.3411 15.3478 24.2796 15.1995 24.1702 15.0901C24.0608 14.9807 23.9124 14.9192 23.7577 14.9192C23.603 14.9192 23.4547 14.9807 23.3453 15.0901C23.2359 15.1995 23.1744 15.3478 23.1744 15.5026V16.0859H18.5077V15.5026C18.5077 15.3478 18.4463 15.1995 18.3369 15.0901C18.2275 14.9807 18.0791 14.9192 17.9244 14.9192C17.7697 14.9192 17.6213 14.9807 17.5119 15.0901C17.4025 15.1995 17.3411 15.3478 17.3411 15.5026V16.6692H16.1744V15.5026C16.1744 15.3478 16.1129 15.1995 16.0036 15.0901C15.8942 14.9807 15.7458 14.9192 15.5911 14.9192C15.4364 14.9192 15.288 14.9807 15.1786 15.0901C15.0692 15.1995 15.0077 15.3478 15.0077 15.5026V26.0026C15.0077 26.1573 15.0692 26.3056 15.1786 26.415C15.288 26.5244 15.4364 26.5859 15.5911 26.5859C15.7458 26.5859 15.8942 26.5244 16.0036 26.415C16.1129 26.3056 16.1744 26.1573 16.1744 26.0026V24.8359H17.3411V26.0026C17.3411 26.1573 17.4025 26.3056 17.5119 26.415C17.6213 26.5244 17.7697 26.5859 17.9244 26.5859C18.0791 26.5859 18.2275 26.5244 18.3369 26.415C18.4463 26.3056 18.5077 26.1573 18.5077 26.0026V25.4192H23.1744V26.0026C23.1744 26.1573 23.2359 26.3056 23.3453 26.415C23.4547 26.5244 23.603 26.5859 23.7577 26.5859C23.9124 26.5859 24.0608 26.5244 24.1702 26.415C24.2796 26.3056 24.3411 26.1573 24.3411 26.0026V24.8359H25.5077V26.0026C25.5077 26.1573 25.5692 26.3056 25.6786 26.415C25.788 26.5244 25.9364 26.5859 26.0911 26.5859C26.2458 26.5859 26.3942 26.5244 26.5036 26.415C26.6129 26.3056 26.6744 26.1573 26.6744 26.0026V15.5026C26.6744 15.3478 26.6129 15.1995 26.5036 15.0901C26.3942 14.9807 26.2458 14.9192 26.0911 14.9192ZM17.3411 23.6692H16.1744V22.5026H17.3411V23.6692ZM17.3411 21.3359H16.1744V20.1692H17.3411V21.3359ZM17.3411 19.0026H16.1744V17.8359H17.3411V19.0026ZM23.1744 24.2526H18.5077V21.3359H23.1744V24.2526ZM23.1744 20.1692H18.5077V17.2526H23.1744V20.1692ZM25.5077 23.6692H24.3411V22.5026H25.5077V23.6692ZM25.5077 21.3359H24.3411V20.1692H25.5077V21.3359ZM25.5077 19.0026H24.3411V17.8359H25.5077V19.0026Z" stroke="#FAFAFA" stroke-width="2" mask="url(#path-1-inside-1_264_7955)"/>
<path d="M10.8152 1.05118C10.7553 0.999733 10.685 0.961805 10.609 0.939977C10.5331 0.91815 10.4534 0.912934 10.3752 0.924686L3.22524 2.02462C3.09503 2.04438 2.97624 2.11019 2.89045 2.21011C2.80466 2.31002 2.75757 2.4374 2.75774 2.56909V8.26127C2.50076 8.13576 2.21873 8.06996 1.93274 8.06878C1.55201 8.06878 1.17983 8.18168 0.863267 8.39319C0.546702 8.6047 0.29997 8.90532 0.154272 9.25705C0.00857289 9.60878 -0.0295485 9.99581 0.044728 10.3692C0.119005 10.7426 0.302343 11.0856 0.571559 11.3548C0.840775 11.624 1.18378 11.8073 1.55719 11.8816C1.9306 11.9559 2.31766 11.9177 2.6694 11.772C3.02115 11.6264 3.3218 11.3796 3.53332 11.0631C3.74484 10.7465 3.85774 10.3744 3.85774 9.99367V5.79191L9.90774 4.86246V7.16133C9.65076 7.03582 9.36873 6.97002 9.08274 6.96884C8.70201 6.96884 8.32983 7.08174 8.01327 7.29325C7.6967 7.50476 7.44997 7.80538 7.30427 8.15711C7.15857 8.50884 7.12045 8.89587 7.19473 9.26926C7.269 9.64266 7.45234 9.98564 7.72156 10.2548C7.99077 10.524 8.33378 10.7074 8.70719 10.7816C9.0806 10.8559 9.46766 10.8178 9.8194 10.6721C10.1712 10.5264 10.4718 10.2797 10.6833 9.96315C10.8948 9.6466 11.0077 9.27444 11.0077 8.89374V1.46916C11.0077 1.38972 10.9905 1.31122 10.9573 1.23907C10.9241 1.16691 10.8756 1.10281 10.8152 1.05118ZM1.93274 10.8186C1.76957 10.8186 1.61006 10.7702 1.47439 10.6796C1.33872 10.589 1.23298 10.4601 1.17054 10.3094C1.1081 10.1586 1.09176 9.99276 1.12359 9.83273C1.15542 9.67271 1.234 9.52572 1.34938 9.41034C1.46475 9.29497 1.61176 9.2164 1.77179 9.18457C1.93182 9.15274 2.0977 9.16908 2.24845 9.23152C2.3992 9.29396 2.52805 9.39969 2.6187 9.53535C2.70935 9.67102 2.75774 9.83051 2.75774 9.99367C2.75774 10.2125 2.67082 10.4223 2.5161 10.577C2.36139 10.7317 2.15154 10.8186 1.93274 10.8186ZM9.08274 9.71869C8.91957 9.71869 8.76006 9.67031 8.62439 9.57966C8.48872 9.48901 8.38298 9.36017 8.32054 9.20943C8.2581 9.05869 8.24176 8.89282 8.27359 8.7328C8.30542 8.57277 8.384 8.42578 8.49938 8.31041C8.61475 8.19503 8.76176 8.11646 8.92179 8.08463C9.08182 8.0528 9.2477 8.06914 9.39845 8.13158C9.5492 8.19402 9.67805 8.29975 9.7687 8.43542C9.85935 8.57108 9.90774 8.73058 9.90774 8.89374C9.90774 9.11253 9.82082 9.32236 9.6661 9.47707C9.51138 9.63177 9.30154 9.71869 9.08274 9.71869ZM9.90774 3.74603L3.85774 4.67547V3.02557L9.90774 2.11262V3.74603Z" stroke="#FAFAFA" stroke-width="2" mask="url(#path-1-inside-1_264_7955)"/>
<path d="M25.0911 2.50205H22.8473L24.2848 1.07109C24.3431 1.01283 24.3893 0.943659 24.4209 0.867536C24.4524 0.791412 24.4686 0.709824 24.4686 0.627429C24.4686 0.545034 24.4524 0.463445 24.4209 0.387322C24.3893 0.311199 24.3431 0.242032 24.2848 0.18377C24.2265 0.125507 24.1574 0.0792914 24.0812 0.0477601C24.0051 0.0162289 23.9235 0 23.8411 0C23.6746 0 23.515 0.0661039 23.3973 0.18377L21.3411 2.2146L20.6098 0.96486C20.5688 0.893468 20.5141 0.830857 20.4488 0.780601C20.3836 0.730345 20.3091 0.693429 20.2296 0.67196C20.1501 0.65049 20.0671 0.644889 19.9854 0.655475C19.9038 0.666061 19.825 0.692627 19.7536 0.733657C19.6822 0.774687 19.6195 0.829376 19.5693 0.894603C19.519 0.95983 19.4821 1.03432 19.4606 1.11381C19.4391 1.1933 19.4335 1.27625 19.4441 1.35791C19.4547 1.43957 19.4813 1.51834 19.5223 1.58973L20.0911 2.50205H17.5911C17.0938 2.50205 16.6169 2.69955 16.2652 3.05111C15.9136 3.40267 15.7161 3.87948 15.7161 4.37666V9.37564C15.7161 9.87282 15.9136 10.3496 16.2652 10.7012C16.6169 11.0528 17.0938 11.2503 17.5911 11.2503V11.8751C17.5911 12.0409 17.6569 12.1998 17.7741 12.317C17.8913 12.4342 18.0503 12.5 18.2161 12.5C18.3818 12.5 18.5408 12.4342 18.658 12.317C18.7752 12.1998 18.8411 12.0409 18.8411 11.8751V11.2503H23.8411V11.8751C23.8411 12.0409 23.9069 12.1998 24.0241 12.317C24.1413 12.4342 24.3003 12.5 24.4661 12.5C24.6318 12.5 24.7908 12.4342 24.908 12.317C25.0252 12.1998 25.0911 12.0409 25.0911 11.8751V11.2503C25.5884 11.2503 26.0653 11.0528 26.4169 10.7012C26.7685 10.3496 26.9661 9.87282 26.9661 9.37564V4.37666C26.9661 3.87948 26.7685 3.40267 26.4169 3.05111C26.0653 2.69955 25.5884 2.50205 25.0911 2.50205ZM25.7161 9.37564C25.7161 9.54137 25.6502 9.7003 25.533 9.81749C25.4158 9.93468 25.2568 10.0005 25.0911 10.0005H17.5911C17.4253 10.0005 17.2663 9.93468 17.1491 9.81749C17.0319 9.7003 16.9661 9.54137 16.9661 9.37564V4.37666C16.9661 4.21094 17.0319 4.052 17.1491 3.93481C17.2663 3.81762 17.4253 3.75179 17.5911 3.75179H25.0911C25.2568 3.75179 25.4158 3.81762 25.533 3.93481C25.6502 4.052 25.7161 4.21094 25.7161 4.37666V9.37564Z" stroke="#FAFAFA" stroke-width="2" mask="url(#path-1-inside-1_264_7955)"/>
</svg>
